<svg id="Capa_1" data-name="Capa 1" xmlns="http://www.w3.org/2000/svg" xmlns:xlink="http://www.w3.org/1999/xlink" viewBox="0 0 106.81 95"><defs><style>.cls-1{fill:none;}.cls-2{clip-path:url(#clip-path);}.cls-3{fill:url(#Degradado_sin_nombre_82);}.cls-4{clip-path:url(#clip-path-2);}.cls-5{fill:url(#Degradado_sin_nombre_82-2);}.cls-6{clip-path:url(#clip-path-3);}.cls-7{fill:url(#Degradado_sin_nombre_82-3);}.cls-8{clip-path:url(#clip-path-4);}.cls-9{fill:url(#Degradado_sin_nombre_82-4);}.cls-10{clip-path:url(#clip-path-5);}.cls-11{fill:url(#Degradado_sin_nombre_82-5);}</style><clipPath id="clip-path"><path id="SVGID" class="cls-1" d="M90.05,50.58a11,11,0,0,1,3.83-1.65c1.15,4.79-.59,9-4.66,11.18.13-1.22.25-2.37.38-3.63l-4.18,2.21c-1.29.68-2.56,1.35-3.82,2,2.88-3.37,4.85-7.69,8.45-10.14m-6-42.73-4.39,6-1.59,2.19H76.51c.36.22.71.46,1.08.68,1.63,1.05,3.22,2.18,4.78,3.33,1.37,1,1.89,3.15,3.24,4.23,1,.8,2,1.6,3,2.36,2.44,1.86,4.92,3.66,7.39,5.48l2,1.47c-.1.29-.19.58-.28.87l-2.24.13-5.13.31-.49.85,4.58,3L98,41.1c-.78,1.46-1.25,4-2.67,4.71a23.33,23.33,0,0,1-3.86,1.58c-2,.66-4,1.15-6.08,1.72-.41.11-1.5-.75-1.6-1.27a2.36,2.36,0,0,1,1-1.92c1.54-.94,3.24-1.65,4.89-2.45,0-.18-.1-.37-.14-.56-1.77.25-3.56.5-5.34.73A58.1,58.1,0,0,1,78.4,54.41C71.26,64.84,59,75.18,53.75,79.37a158.66,158.66,0,0,1-15.26-14c-.24-.24-.46-.49-.7-.75-1-1.06-1.94-2.15-2.88-3.29-1.35-1.6-2.65-3.26-3.9-5-.43-.59-.86-1.18-1.29-1.79v0c-1.13-1.57-2.25-3.23-3.37-5.14-.43-.75-.87-1.54-1.3-2.38l0-.06-.67-1.32c-.17-.37-.36-.76-.53-1.16a59.22,59.22,0,0,1-2.44-6.33s0-.05,0-.08A67.29,67.29,0,0,1,18.9,27.59a77.73,77.73,0,0,1-.85-11.53H27.3l6-8.21H10.13l-.19,3.91c-.1,2.14-.12,4.25-.08,6.33a85.4,85.4,0,0,0,.75,9.72c.11.77.22,1.55.35,2.31.38,2.19.84,4.35,1.39,6.46A69.65,69.65,0,0,0,15.53,46h0a.24.24,0,0,0,0,.07q.38.9.78,1.77a60,60,0,0,0,3.35,6.37.13.13,0,0,0,0,.06q.43.72.87,1.41c.73,1.15,1.46,2.21,2.17,3.22l1.59,2.22a4.22,4.22,0,0,0,.27.36h0Q27.19,65,30,68.15a119.29,119.29,0,0,0,9.4,9.61c.73.68,1.46,1.33,2.19,2,1.55,1.38,3.08,2.71,4.58,4,1.69,1.43,3.32,2.77,4.89,4.06l2.51,2.1,2.59-1.92c.26-.2,2.56-1.92,5.87-4.68,6.51-1.09,12.14-1.82,16.74-5.9s4-10.24,5.93-15.38c.3.09.62.16.92.24.07,1,.14,2,.22,3,7.64-2.74,10.27-6.87,11.34-14.63.5-3.69,2.68-7.44,5-10.51,1.92-2.59,2.11-4.35-.22-6.19-1.8-1.42-3.62-2.8-5.45-4.18a92.09,92.09,0,0,0,1-17.89l-.17-3.93Z"/></clipPath><linearGradient id="Degradado_sin_nombre_82" x1="21.34" y1="448.63" x2="22.34" y2="448.63" gradientTransform="matrix(361.22, 0, 0, -361.22, -7841.63, 162101.14)" gradientUnits="userSpaceOnUse"><stop offset="0" stop-color="#f1d672"/><stop offset="0.05" stop-color="#dab54d"/><stop offset="0.12" stop-color="#bf8d22"/><stop offset="0.15" stop-color="#b57e11"/><stop offset="0.42" stop-color="#dbb44d"/><stop offset="0.61" stop-color="#f9df7d"/><stop offset="0.72" stop-color="#fff3a8"/><stop offset="0.84" stop-color="#f9df7d"/><stop offset="0.94" stop-color="#cda037"/><stop offset="1" stop-color="#b57e11"/></linearGradient><clipPath id="clip-path-2"><path id="SVGID-2" data-name="SVGID" class="cls-1" d="M85.49,40.17c-.19.59-.39,1.16-.61,1.72,1-.58,2.1-1.23,3.46-2l-2.85.29"/></clipPath><linearGradient id="Degradado_sin_nombre_82-2" x1="21.34" y1="448.65" x2="22.34" y2="448.65" gradientTransform="matrix(361.22, 0, 0, -361.22, -7841.79, 162102.03)" xlink:href="#Degradado_sin_nombre_82"/><clipPath id="clip-path-3"><path id="SVGID-3" data-name="SVGID" class="cls-1" d="M76.59,22.51a32.46,32.46,0,0,1-3.78.77c-2.77.42-5.17.53-5.17.53l3.36,2,1.24.74,5.1-.26,4.48,2.29,3.72,1.9-3.4-4.08L80,23.81V21.08a12,12,0,0,1-3.43,1.43"/></clipPath><linearGradient id="Degradado_sin_nombre_82-3" x1="21.34" y1="448.66" x2="22.34" y2="448.66" gradientTransform="matrix(361.22, 0, 0, -361.22, -7848.68, 162088.53)" xlink:href="#Degradado_sin_nombre_82"/><clipPath id="clip-path-4"><path id="SVGID-4" data-name="SVGID" class="cls-1" d="M61.31,11.18,54,14.43l-.13.06.59.42h0L56,16.06l1.14.83-4.08,5.62h0L33.74,49c.82,1.22,1.64,2.37,2.5,3.54S38,54.85,38.83,56c1.69,2.08,3.45,4,5.24,5.93,6.66-3.75,11-9.53,13.25-17.5A20.09,20.09,0,0,1,45.71,63.57c2.67,2.65,5.4,5.11,8.08,7.42,5.75-4.89,14.05-12.58,19.28-20.23a50.83,50.83,0,0,0,5.09-9.42c-2.26-4.28-4.62-8.09-9.4-9.6.38,2.93.74,5.71,1.19,9.23-9.53-6.57-10.48-7.68-8.64-14.51.1-.4.22-.82.35-1.25a6.28,6.28,0,0,1,.8-1.65l.4-.53c.14-.18.28-.36.42-.52h-.07l.57-.79h0l3.28,2.4.86-8.07.32-3,.56-5.22Z"/></clipPath><linearGradient id="Degradado_sin_nombre_82-4" x1="21.34" y1="448.66" x2="22.34" y2="448.66" gradientTransform="matrix(361.22, 0, 0, -361.22, -7845.12, 162102.88)" xlink:href="#Degradado_sin_nombre_82"/><clipPath id="clip-path-5"><path id="SVGID-5" data-name="SVGID" class="cls-1" d="M39,13.89l-4.89,2.17-2.72,1.21,3.31,2.4-2.08,2.84L26.2,31.39a.15.15,0,0,0,0,.09,54.94,54.94,0,0,0,2,6.85h0a14.94,14.94,0,0,0,1.22,2.49L41.36,24.5l0,0,3.26,2.37.3-2.84.54-5.16.31-2.85.34-3.21.23-2.22Z"/></clipPath><linearGradient id="Degradado_sin_nombre_82-5" x1="21.34" y1="448.66" x2="22.34" y2="448.66" gradientTransform="matrix(361.22, 0, 0, -361.22, -7851.42, 162087.82)" xlink:href="#Degradado_sin_nombre_82"/></defs><title>Mesa de trabajo 2</title><g class="cls-2"><rect class="cls-3" x="-1.91" y="-6.57" width="117.85" height="110.85" transform="translate(-13.92 24.24) rotate(-21.46)"/></g><g class="cls-4"><rect class="cls-5" x="84.63" y="39.31" width="3.96" height="3.14" transform="translate(-8.95 34.51) rotate(-21.46)"/></g><g class="cls-6"><rect class="cls-7" x="66.55" y="18.13" width="20.08" height="15.27" transform="translate(-4.12 29.8) rotate(-21.46)"/></g><g class="cls-8"><rect class="cls-9" x="23.73" y="1.91" width="64.44" height="75.01" transform="translate(-10.54 23.2) rotate(-21.46)"/></g><g class="cls-10"><rect class="cls-11" x="21.38" y="7.98" width="29.84" height="35.48" transform="translate(-6.89 15.06) rotate(-21.46)"/></g></svg>