<svg id="Capa_1" data-name="Capa 1" xmlns="http://www.w3.org/2000/svg" xmlns:xlink="http://www.w3.org/1999/xlink" viewBox="0 0 234.22 54.89"><defs><style>.cls-1{fill:none;}.cls-2{clip-path:url(#clip-path);}.cls-3{fill:url(#Degradado_sin_nombre_82);}.cls-4{clip-path:url(#clip-path-2);}.cls-5{fill:url(#Degradado_sin_nombre_82-2);}.cls-6{clip-path:url(#clip-path-3);}.cls-7{fill:url(#Degradado_sin_nombre_82-3);}.cls-8{clip-path:url(#clip-path-4);}.cls-9{fill:url(#Degradado_sin_nombre_82-4);}.cls-10{clip-path:url(#clip-path-5);}.cls-11{fill:url(#Degradado_sin_nombre_82-5);}.cls-12{clip-path:url(#clip-path-6);}.cls-13{fill:url(#Degradado_sin_nombre_82-6);}.cls-14{clip-path:url(#clip-path-7);}.cls-15{fill:url(#Degradado_sin_nombre_82-7);}.cls-16{clip-path:url(#clip-path-8);}.cls-17{fill:url(#Degradado_sin_nombre_82-8);}.cls-18{clip-path:url(#clip-path-9);}.cls-19{fill:url(#Degradado_sin_nombre_82-9);}.cls-20{clip-path:url(#clip-path-10);}.cls-21{fill:url(#Degradado_sin_nombre_82-10);}.cls-22{clip-path:url(#clip-path-11);}.cls-23{fill:url(#Degradado_sin_nombre_82-11);}.cls-24{clip-path:url(#clip-path-12);}.cls-25{fill:url(#Degradado_sin_nombre_82-12);}.cls-26{clip-path:url(#clip-path-13);}.cls-27{fill:url(#Degradado_sin_nombre_82-13);}.cls-28{clip-path:url(#clip-path-14);}.cls-29{fill:url(#Degradado_sin_nombre_82-14);}.cls-30{clip-path:url(#clip-path-15);}.cls-31{fill:url(#Degradado_sin_nombre_82-15);}.cls-32{clip-path:url(#clip-path-16);}.cls-33{fill:url(#Degradado_sin_nombre_82-16);}.cls-34{clip-path:url(#clip-path-17);}.cls-35{fill:url(#Degradado_sin_nombre_82-17);}.cls-36{clip-path:url(#clip-path-18);}.cls-37{fill:url(#Degradado_sin_nombre_82-18);}.cls-38{clip-path:url(#clip-path-19);}.cls-39{fill:url(#Degradado_sin_nombre_82-19);}.cls-40{clip-path:url(#clip-path-20);}.cls-41{fill:url(#Degradado_sin_nombre_82-20);}.cls-42{clip-path:url(#clip-path-21);}.cls-43{fill:url(#Degradado_sin_nombre_82-21);}.cls-44{clip-path:url(#clip-path-22);}.cls-45{fill:url(#Degradado_sin_nombre_82-22);}.cls-46{clip-path:url(#clip-path-23);}.cls-47{fill:url(#Degradado_sin_nombre_82-23);}.cls-48{clip-path:url(#clip-path-24);}.cls-49{fill:url(#Degradado_sin_nombre_82-24);}.cls-50{clip-path:url(#clip-path-25);}.cls-51{fill:url(#Degradado_sin_nombre_82-25);}.cls-52{clip-path:url(#clip-path-26);}.cls-53{fill:url(#Degradado_sin_nombre_82-26);}.cls-54{clip-path:url(#clip-path-27);}.cls-55{fill:url(#Degradado_sin_nombre_82-27);}.cls-56{clip-path:url(#clip-path-28);}.cls-57{fill:url(#Degradado_sin_nombre_82-28);}.cls-58{clip-path:url(#clip-path-29);}.cls-59{fill:url(#Degradado_sin_nombre_82-29);}</style><clipPath id="clip-path"><polygon id="SVGID" class="cls-1" points="88.41 39.75 88.41 40.49 90.49 40.49 90.49 46.56 91.37 46.56 91.37 40.49 93.46 40.49 93.46 39.75 88.41 39.75"/></clipPath><linearGradient id="Degradado_sin_nombre_82" x1="23.76" y1="539.22" x2="24.76" y2="539.22" gradientTransform="matrix(0, 272.33, 272.33, 0, -146756.13, -6511.75)" gradientUnits="userSpaceOnUse"><stop offset="0" stop-color="#f1d672"/><stop offset="0.05" stop-color="#dab54d"/><stop offset="0.12" stop-color="#bf8d22"/><stop offset="0.15" stop-color="#b57e11"/><stop offset="0.42" stop-color="#dbb44d"/><stop offset="0.61" stop-color="#f9df7d"/><stop offset="0.72" stop-color="#fff3a8"/><stop offset="0.84" stop-color="#f9df7d"/><stop offset="0.94" stop-color="#cda037"/><stop offset="1" stop-color="#b57e11"/></linearGradient><clipPath id="clip-path-2"><path id="SVGID-2" data-name="SVGID" class="cls-1" d="M97.31,40.45a4.59,4.59,0,0,1,.87-.07c.93,0,1.56.38,1.56,1.27s-.59,1.29-1.53,1.29h-.9Zm-.88-.61v6.72h.88v-3h.83c.8,0,1.17.38,1.37,1.32a8.32,8.32,0,0,0,.45,1.63h.91a11.15,11.15,0,0,1-.52-1.87,1.73,1.73,0,0,0-1-1.38v0a1.81,1.81,0,0,0,1.28-1.74,1.74,1.74,0,0,0-.53-1.3,2.86,2.86,0,0,0-2-.56,9.31,9.31,0,0,0-1.69.15"/></clipPath><linearGradient id="Degradado_sin_nombre_82-2" x1="23.76" y1="539.22" x2="24.76" y2="539.22" gradientTransform="matrix(0, 272.33, 272.33, 0, -146748.44, -6519.27)" xlink:href="#Degradado_sin_nombre_82"/><clipPath id="clip-path-3"><path id="SVGID-3" data-name="SVGID" class="cls-1" d="M106.1,41.76c.13-.42.24-.84.34-1.23h0c.1.39.2.79.35,1.24l.68,2h-2.06Zm-.15-2-2.32,6.81h.92l.7-2.14h2.41l.73,2.14h1L107,39.75Z"/></clipPath><linearGradient id="Degradado_sin_nombre_82-3" x1="23.76" y1="539.22" x2="24.76" y2="539.22" gradientTransform="matrix(0, 272.33, 272.33, 0, -146740.59, -6527.5)" xlink:href="#Degradado_sin_nombre_82"/><clipPath id="clip-path-4"><path id="SVGID-4" data-name="SVGID" class="cls-1" d="M114.32,45.91a7.34,7.34,0,0,1-.88,0V40.49a5.06,5.06,0,0,1,1-.09c1.86,0,2.77,1,2.76,2.62a2.61,2.61,0,0,1-2.89,2.89h0m-1.76-6.07v6.7a14.3,14.3,0,0,0,1.6.08,4.23,4.23,0,0,0,3-1,3.64,3.64,0,0,0,1-2.65,3.11,3.11,0,0,0-1-2.44,3.9,3.9,0,0,0-2.76-.86,11.52,11.52,0,0,0-1.87.15"/></clipPath><linearGradient id="Degradado_sin_nombre_82-4" x1="23.76" y1="539.22" x2="24.76" y2="539.22" gradientTransform="matrix(0, 272.33, 272.33, 0, -146731.71, -6536.59)" xlink:href="#Degradado_sin_nombre_82"/><clipPath id="clip-path-5"><rect id="SVGID-5" data-name="SVGID" class="cls-1" x="121.51" y="39.75" width="0.88" height="6.81"/></clipPath><linearGradient id="Degradado_sin_nombre_82-5" x1="23.76" y1="539.22" x2="24.76" y2="539.22" gradientTransform="matrix(0, 272.33, 272.33, 0, -146725.15, -6541.96)" xlink:href="#Degradado_sin_nombre_82"/><clipPath id="clip-path-6"><path id="SVGID-6" data-name="SVGID" class="cls-1" d="M130.44,39.75V42.6c0,1.06,0,1.89.1,2.8h0a20.22,20.22,0,0,0-1.22-2.22l-2.18-3.44h-1v6.81H127V43.65c0-1.13,0-1.95-.07-2.81l0,0a22,22,0,0,0,1.27,2.29l2.17,3.45h.89V39.75Z"/></clipPath><linearGradient id="Degradado_sin_nombre_82-6" x1="23.76" y1="539.22" x2="24.76" y2="539.22" gradientTransform="matrix(0, 272.33, 272.33, 0, -146718.35, -6549.67)" xlink:href="#Degradado_sin_nombre_82"/><clipPath id="clip-path-7"><path id="SVGID-7" data-name="SVGID" class="cls-1" d="M134.63,43.2a3.2,3.2,0,0,0,3.49,3.43,6.18,6.18,0,0,0,2.1-.38V43H138v.71h1.38v2a2.86,2.86,0,0,1-1.17.18,2.5,2.5,0,0,1-2.63-2.75,2.55,2.55,0,0,1,2.74-2.73,3.36,3.36,0,0,1,1.5.29L140,40a4.24,4.24,0,0,0-1.7-.31,3.41,3.41,0,0,0-3.68,3.52"/></clipPath><linearGradient id="Degradado_sin_nombre_82-7" x1="23.76" y1="539.22" x2="24.76" y2="539.22" gradientTransform="matrix(0, 272.33, 272.33, 0, -146709.65, -6558.06)" xlink:href="#Degradado_sin_nombre_82"/><clipPath id="clip-path-8"><path id="SVGID-8" data-name="SVGID" class="cls-1" d="M150.1,41.76c.14-.42.24-.84.34-1.23h0c.1.39.21.79.35,1.24l.68,2h-2.06Zm-.15-2-2.32,6.81h.92l.7-2.14h2.42l.73,2.14h.94L151,39.75Z"/></clipPath><linearGradient id="Degradado_sin_nombre_82-8" x1="23.76" y1="539.22" x2="24.76" y2="539.22" gradientTransform="matrix(0, 272.33, 272.33, 0, -146696.58, -6571.51)" xlink:href="#Degradado_sin_nombre_82"/><clipPath id="clip-path-9"><path id="SVGID-9" data-name="SVGID" class="cls-1" d="M156,43.21a3.18,3.18,0,0,0,3.36,3.45,4.39,4.39,0,0,0,1.8-.32l-.18-.7a3.58,3.58,0,0,1-1.44.28,2.47,2.47,0,0,1-2.61-2.73,2.53,2.53,0,0,1,2.65-2.81,3.18,3.18,0,0,1,1.37.28l.22-.72a3.69,3.69,0,0,0-1.62-.3A3.38,3.38,0,0,0,156,43.21"/></clipPath><linearGradient id="Degradado_sin_nombre_82-9" x1="23.76" y1="539.22" x2="24.76" y2="539.22" gradientTransform="matrix(0, 272.33, 272.33, 0, -146688.46, -6579.48)" xlink:href="#Degradado_sin_nombre_82"/><clipPath id="clip-path-10"><path id="SVGID-10" data-name="SVGID" class="cls-1" d="M166.48,41.76c.14-.42.24-.84.34-1.23h0c.09.39.2.79.35,1.24l.67,2h-2.06Zm-.15-2L164,46.56h.91l.7-2.14h2.42l.73,2.14h.94l-2.33-6.81Z"/></clipPath><linearGradient id="Degradado_sin_nombre_82-10" x1="23.76" y1="539.22" x2="24.76" y2="539.22" gradientTransform="matrix(0, 272.33, 272.33, 0, -146680.21, -6587.69)" xlink:href="#Degradado_sin_nombre_82"/><clipPath id="clip-path-11"><path id="SVGID-11" data-name="SVGID" class="cls-1" d="M174.71,45.91a7.52,7.52,0,0,1-.89,0V40.49a5.13,5.13,0,0,1,1-.09c1.86,0,2.77,1,2.76,2.62a2.61,2.61,0,0,1-2.89,2.89h0m-1.77-6.07v6.7a14.43,14.43,0,0,0,1.6.08,4.28,4.28,0,0,0,3-1,3.64,3.64,0,0,0,1-2.65,3.11,3.11,0,0,0-1-2.44,3.88,3.88,0,0,0-2.76-.86,11.52,11.52,0,0,0-1.87.15"/></clipPath><linearGradient id="Degradado_sin_nombre_82-11" x1="23.76" y1="539.22" x2="24.76" y2="539.22" gradientTransform="matrix(0, 272.33, 272.33, 0, -146671.34, -6596.59)" xlink:href="#Degradado_sin_nombre_82"/><clipPath id="clip-path-12"><polygon id="SVGID-12" data-name="SVGID" class="cls-1" points="181.89 39.75 181.89 46.56 185.73 46.56 185.73 45.83 182.78 45.83 182.78 43.37 185.42 43.37 185.42 42.64 182.78 42.64 182.78 40.48 185.57 40.48 185.57 39.75 181.89 39.75"/></clipPath><linearGradient id="Degradado_sin_nombre_82-12" x1="23.76" y1="539.22" x2="24.76" y2="539.22" gradientTransform="matrix(0, 272.33, 272.33, 0, -146663.26, -6604.52)" xlink:href="#Degradado_sin_nombre_82"/><clipPath id="clip-path-13"><path id="SVGID-13" data-name="SVGID" class="cls-1" d="M194.32,39.75,193.1,43c-.3.86-.54,1.61-.72,2.3h0c-.17-.71-.4-1.46-.68-2.3l-1.16-3.29h-1.13l-.47,6.81h.83l.19-2.93c.06-1,.11-2.15.13-3h0c.19.81.46,1.68.78,2.64L192,46.52h.67l1.2-3.31c.34-.93.62-1.79.86-2.58h0c0,.84.06,2,.11,2.94l.17,3h.86l-.42-6.81Z"/></clipPath><linearGradient id="Degradado_sin_nombre_82-13" x1="23.76" y1="539.22" x2="24.76" y2="539.22" gradientTransform="matrix(0, 272.33, 272.33, 0, -146654.69, -6613.2)" xlink:href="#Degradado_sin_nombre_82"/><clipPath id="clip-path-14"><path id="SVGID-14" data-name="SVGID" class="cls-1" d="M203.1,39.75l-1,1.87c-.26.52-.5,1-.68,1.41h0c-.21-.47-.42-.89-.68-1.4l-1-1.88h-1l2.16,3.92v2.89h.88v-2.9l2.28-3.91Z"/></clipPath><linearGradient id="Degradado_sin_nombre_82-14" x1="23.76" y1="539.22" x2="24.76" y2="539.22" gradientTransform="matrix(0, 272.33, 272.33, 0, -146645.63, -6622.09)" xlink:href="#Degradado_sin_nombre_82"/><clipPath id="clip-path-15"><path id="SVGID-15" data-name="SVGID" class="cls-1" d="M66.45,12.05a6.42,6.42,0,0,0-2.74,2.34,6.32,6.32,0,0,0-1,3.54,5.12,5.12,0,0,0,1.49,4,10.88,10.88,0,0,0,4,2.18l1.52.47a13.18,13.18,0,0,1,2.24.88,2.66,2.66,0,0,1,1,.88,2.18,2.18,0,0,1,.3,1.2A1.91,1.91,0,0,1,72.56,29a3.92,3.92,0,0,1-2.49.63,7.3,7.3,0,0,1-2.91-.56,9.51,9.51,0,0,1-2.41-1.5L63,30.76a9.45,9.45,0,0,0,2.94,1.91,10.33,10.33,0,0,0,4.34.88,9.45,9.45,0,0,0,4.35-.91,6.48,6.48,0,0,0,2.69-2.38,5.87,5.87,0,0,0,.89-3.08,5.79,5.79,0,0,0-1.67-4.42A11.65,11.65,0,0,0,72,20.28l-1.55-.5A9.22,9.22,0,0,1,68.6,19a2.08,2.08,0,0,1-.81-.77,2.19,2.19,0,0,1-.19-1,2,2,0,0,1,.69-1.51,3.18,3.18,0,0,1,2.19-.63,6,6,0,0,1,2.52.5A10.45,10.45,0,0,1,75.24,17l2-3.26A9.09,9.09,0,0,0,74.33,12a10.19,10.19,0,0,0-3.79-.75,9.72,9.72,0,0,0-4.09.82"/></clipPath><linearGradient id="Degradado_sin_nombre_82-15" x1="23.76" y1="539.22" x2="24.76" y2="539.22" gradientTransform="matrix(0, 272.33, 272.33, 0, -146776.6, -6512.09)" xlink:href="#Degradado_sin_nombre_82"/><clipPath id="clip-path-16"><path id="SVGID-16" data-name="SVGID" class="cls-1" d="M88.69,28.74a6.18,6.18,0,0,1-2.37-2.56,8.36,8.36,0,0,1-.83-3.79,8.4,8.4,0,0,1,.83-3.8A6.14,6.14,0,0,1,88.69,16a6.66,6.66,0,0,1,3.49-.91,6.55,6.55,0,0,1,3.48.91A6.27,6.27,0,0,1,98,18.59a8.15,8.15,0,0,1,.85,3.8A8.11,8.11,0,0,1,98,26.18a6.31,6.31,0,0,1-2.37,2.56,6.64,6.64,0,0,1-3.48.91,6.75,6.75,0,0,1-3.49-.91M86.15,12.63a9.91,9.91,0,0,0-4.08,3.93,11.55,11.55,0,0,0-1.46,5.83,11.52,11.52,0,0,0,1.46,5.83,9.87,9.87,0,0,0,4.08,3.94,13.75,13.75,0,0,0,12,0,10,10,0,0,0,4.07-3.94,11.52,11.52,0,0,0,1.46-5.83,11.55,11.55,0,0,0-1.46-5.83,10,10,0,0,0-4.07-3.93,13.66,13.66,0,0,0-12,0"/></clipPath><linearGradient id="Degradado_sin_nombre_82-16" x1="23.76" y1="539.22" x2="24.76" y2="539.22" gradientTransform="matrix(0, 272.33, 272.33, 0, -146754.89, -6533.79)" xlink:href="#Degradado_sin_nombre_82"/><clipPath id="clip-path-17"><path id="SVGID-17" data-name="SVGID" class="cls-1" d="M121.82,11.52V24.68a4.7,4.7,0,0,1-4.94,5,5,5,0,0,1-3.64-1.37,4.84,4.84,0,0,1-1.38-3.6V11.52h-4.7V24.89a8.43,8.43,0,0,0,1.22,4.52,8.21,8.21,0,0,0,3.42,3.06,12.37,12.37,0,0,0,10.11,0,8.09,8.09,0,0,0,3.4-3.06,8.42,8.42,0,0,0,1.21-4.52V11.52Z"/></clipPath><linearGradient id="Degradado_sin_nombre_82-17" x1="23.76" y1="539.22" x2="24.76" y2="539.22" gradientTransform="matrix(0, 272.33, 272.33, 0, -146730.18, -6558.27)" xlink:href="#Degradado_sin_nombre_82"/><clipPath id="clip-path-18"><polygon id="SVGID-18" data-name="SVGID" class="cls-1" points="131.22 11.53 131.22 33.26 145.35 33.26 145.35 29.35 135.95 29.35 135.95 11.53 131.22 11.53"/></clipPath><linearGradient id="Degradado_sin_nombre_82-18" x1="23.76" y1="539.22" x2="24.76" y2="539.22" gradientTransform="matrix(0, 272.33, 272.33, 0, -146708.81, -6579.9)" xlink:href="#Degradado_sin_nombre_82"/><clipPath id="clip-path-19"><path id="SVGID-19" data-name="SVGID" class="cls-1" d="M150.69,12.05A6.42,6.42,0,0,0,148,14.39a6.32,6.32,0,0,0-1,3.54,5.12,5.12,0,0,0,1.49,4,10.83,10.83,0,0,0,4,2.18l1.53.47a13,13,0,0,1,2.23.88,2.77,2.77,0,0,1,1.06.88,2.18,2.18,0,0,1,.29,1.2A1.89,1.89,0,0,1,156.8,29a3.93,3.93,0,0,1-2.5.63,7.28,7.28,0,0,1-2.9-.56,9.51,9.51,0,0,1-2.41-1.5l-1.76,3.17a9.52,9.52,0,0,0,2.93,1.91,10.37,10.37,0,0,0,4.35.88,9.51,9.51,0,0,0,4.35-.91,6.39,6.39,0,0,0,2.68-2.38,5.79,5.79,0,0,0,.9-3.08,5.79,5.79,0,0,0-1.67-4.42,11.65,11.65,0,0,0-4.53-2.48l-1.55-.5a9,9,0,0,1-1.85-.8,2,2,0,0,1-.81-.77,2.19,2.19,0,0,1-.19-1,2,2,0,0,1,.69-1.51,3.18,3.18,0,0,1,2.19-.63,6,6,0,0,1,2.52.5A10.16,10.16,0,0,1,159.47,17l2-3.26A9,9,0,0,0,158.56,12a10.12,10.12,0,0,0-3.79-.75,9.71,9.71,0,0,0-4.08.82"/></clipPath><linearGradient id="Degradado_sin_nombre_82-19" x1="23.76" y1="539.22" x2="24.76" y2="539.22" gradientTransform="matrix(0, 272.33, 272.33, 0, -146692.37, -6596.19)" xlink:href="#Degradado_sin_nombre_82"/><clipPath id="clip-path-20"><path id="SVGID-20" data-name="SVGID" class="cls-1" d="M170.84,15.4h3.85a3.31,3.31,0,0,1,2.48.94,3.4,3.4,0,0,1,.93,2.5,3.41,3.41,0,0,1-.91,2.48,3.34,3.34,0,0,1-2.5.92h-3.85Zm-4.73-3.88V33.26h4.73V26.12H175a8.92,8.92,0,0,0,4.19-.94,6.77,6.77,0,0,0,2.8-2.63,7.44,7.44,0,0,0,1-3.89,7.08,7.08,0,0,0-1-3.73,6.64,6.64,0,0,0-2.73-2.51,8.75,8.75,0,0,0-4.05-.9Z"/></clipPath><linearGradient id="Degradado_sin_nombre_82-20" x1="23.76" y1="539.22" x2="24.76" y2="539.22" gradientTransform="matrix(0, 272.33, 272.33, 0, -146672.55, -6616.2)" xlink:href="#Degradado_sin_nombre_82"/><clipPath id="clip-path-21"><polygon id="SVGID-21" data-name="SVGID" class="cls-1" points="186.79 11.53 186.79 33.26 200.92 33.26 200.92 29.35 191.52 29.35 191.52 11.53 186.79 11.53"/></clipPath><linearGradient id="Degradado_sin_nombre_82-21" x1="23.76" y1="539.22" x2="24.76" y2="539.22" gradientTransform="matrix(0, 272.33, 272.33, 0, -146653.24, -6635.55)" xlink:href="#Degradado_sin_nombre_82"/><clipPath id="clip-path-22"><rect id="SVGID-22" data-name="SVGID" class="cls-1" x="204.41" y="11.52" width="4.73" height="21.74"/></clipPath><linearGradient id="Degradado_sin_nombre_82-22" x1="23.76" y1="539.22" x2="24.76" y2="539.22" gradientTransform="matrix(0, 272.33, 272.33, 0, -146640.28, -6648.36)" xlink:href="#Degradado_sin_nombre_82"/><clipPath id="clip-path-23"><polygon id="SVGID-23" data-name="SVGID" class="cls-1" points="212.05 11.53 212.05 15.4 218.57 15.4 218.57 33.26 223.27 33.26 223.27 15.4 229.79 15.4 229.79 11.53 212.05 11.53"/></clipPath><linearGradient id="Degradado_sin_nombre_82-23" x1="23.76" y1="539.22" x2="24.76" y2="539.22" gradientTransform="matrix(0, 272.33, 272.33, 0, -146626.12, -6662.47)" xlink:href="#Degradado_sin_nombre_82"/><clipPath id="clip-path-24"><path id="SVGID-24" data-name="SVGID" class="cls-1" d="M44.79,29.81A5.42,5.42,0,0,1,46.7,29a4.73,4.73,0,0,1-2.33,5.59c.07-.61.13-1.18.19-1.81l-2.09,1.1-1.92,1C42,33.2,43,31,44.79,29.81m-3-21.4-2.2,3-.8,1.09H38l.54.35c.81.52,1.61,1.09,2.39,1.66s1,1.58,1.62,2.12c.5.4,1,.8,1.51,1.18,1.22.94,2.46,1.84,3.7,2.75l1,.74c0,.14-.09.28-.14.43l-1.12.07c-.86,0-1.71.1-2.57.15l-.24.43L47,23.91l1.77,1.15c-.39.74-.62,2-1.33,2.36a11.81,11.81,0,0,1-1.94.8c-1,.32-2,.57-3,.85-.21.06-.76-.37-.8-.63a1.18,1.18,0,0,1,.49-1c.77-.47,1.62-.83,2.44-1.23,0-.09,0-.18-.07-.28l-2.67.37A29.12,29.12,0,0,1,39,31.73c-3.58,5.22-9.71,10.4-12.34,12.5a78.46,78.46,0,0,1-7.64-7l-.35-.37c-.49-.54-1-1.08-1.44-1.65-.68-.8-1.33-1.63-2-2.51l-.65-.9h0c-.56-.79-1.12-1.62-1.68-2.58-.22-.38-.44-.77-.65-1.19l0,0-.34-.66c-.08-.19-.18-.38-.27-.58-.45-1-.86-2.08-1.22-3.17a.06.06,0,0,0,0,0A33.91,33.91,0,0,1,9.16,18.3a39,39,0,0,1-.43-5.78h4.63l3-4.11H4.77l-.1,2c0,1.07-.06,2.13,0,3.17A42.87,42.87,0,0,0,5,18.41c0,.39.11.77.17,1.16.19,1.09.42,2.17.7,3.23a35.36,35.36,0,0,0,1.59,4.72h0s0,0,0,0c.12.3.25.6.38.89a33.15,33.15,0,0,0,1.68,3.19s0,0,0,0l.44.7c.37.58.73,1.11,1.09,1.62l.79,1.11.14.18h0c.85,1.17,1.74,2.28,2.66,3.32a61.53,61.53,0,0,0,4.71,4.81l1.09,1c.78.7,1.55,1.36,2.3,2l2.45,2,1.26,1,1.29-1c.13-.1,1.28-1,2.94-2.35,3.26-.54,6.08-.91,8.39-3s2-5.13,3-7.7l.47.12c0,.49.07,1,.1,1.48,3.83-1.37,5.14-3.44,5.68-7.32a12.26,12.26,0,0,1,2.49-5.27c1-1.29,1.06-2.17-.11-3.1-.9-.71-1.81-1.4-2.73-2.09a45.43,45.43,0,0,0,.48-9l-.08-2Z"/></clipPath><linearGradient id="Degradado_sin_nombre_82-24" x1="23.76" y1="539.22" x2="24.76" y2="539.22" gradientTransform="matrix(0, 272.33, 272.33, 0, -146818.75, -6463.35)" xlink:href="#Degradado_sin_nombre_82"/><clipPath id="clip-path-25"><path id="SVGID-25" data-name="SVGID" class="cls-1" d="M42.5,24.6c-.09.29-.19.58-.3.86l1.73-1-1.43.15"/></clipPath><linearGradient id="Degradado_sin_nombre_82-25" x1="23.76" y1="539.22" x2="24.76" y2="539.22" gradientTransform="matrix(0, 272.33, 272.33, 0, -146803.95, -6483.12)" xlink:href="#Degradado_sin_nombre_82"/><clipPath id="clip-path-26"><path id="SVGID-26" data-name="SVGID" class="cls-1" d="M38.05,15.75a15.46,15.46,0,0,1-1.89.39c-1.4.21-2.59.27-2.59.27l1.68,1,.62.37,2.55-.13,2.25,1.15,1.86.95-1.71-2-1.06-1.28V15a5.64,5.64,0,0,1-1.71.71"/></clipPath><linearGradient id="Degradado_sin_nombre_82-26" x1="23.76" y1="539.22" x2="24.76" y2="539.22" gradientTransform="matrix(0, 272.33, 272.33, 0, -146808.99, -6484.71)" xlink:href="#Degradado_sin_nombre_82"/><clipPath id="clip-path-27"><path id="SVGID-27" data-name="SVGID" class="cls-1" d="M30.4,10.08l-3.67,1.63-.07,0L27,12h0l.78.56.57.42-2,2.81h0L16.59,29c.41.61.82,1.18,1.25,1.77s.86,1.15,1.3,1.7c.84,1,1.72,2,2.62,3a13.77,13.77,0,0,0,6.64-8.76,10.07,10.07,0,0,1-5.81,9.6c1.33,1.33,2.7,2.57,4,3.72A57,57,0,0,0,36.28,29.9a25.46,25.46,0,0,0,2.55-4.71c-1.13-2.15-2.31-4.06-4.71-4.81.2,1.46.37,2.86.6,4.62-4.77-3.29-5.25-3.85-4.32-7.27.05-.2.11-.41.17-.62a2.88,2.88,0,0,1,.4-.83l.2-.27.21-.26h0l.28-.39h0l1.64,1.2.43-4.05L33.88,11l.27-2.62Z"/></clipPath><linearGradient id="Degradado_sin_nombre_82-27" x1="23.76" y1="539.22" x2="24.76" y2="539.22" gradientTransform="matrix(0, 272.33, 272.33, 0, -146819.33, -6467.48)" xlink:href="#Degradado_sin_nombre_82"/><clipPath id="clip-path-28"><path id="SVGID-28" data-name="SVGID" class="cls-1" d="M19.24,11.44l-2.45,1.08-1.36.61,1.66,1.2-1,1.42L12.81,20.2a.09.09,0,0,0,0,.05,29,29,0,0,0,1,3.43h0a7.69,7.69,0,0,0,.6,1.24l6-8.17,0,0L22.06,18l.16-1.42L22.48,14l.16-1.43.17-1.6.11-1.11Z"/></clipPath><linearGradient id="Degradado_sin_nombre_82-28" x1="23.76" y1="539.22" x2="24.76" y2="539.22" gradientTransform="matrix(0, 272.33, 272.33, 0, -146829.18, -6464.6)" xlink:href="#Degradado_sin_nombre_82"/><clipPath id="clip-path-29"><rect id="SVGID-29" data-name="SVGID" class="cls-1" x="55.29" y="6.09" width="0.96" height="45.71"/></clipPath><linearGradient id="Degradado_sin_nombre_82-29" x1="23.76" y1="539.22" x2="24.76" y2="539.22" gradientTransform="matrix(0, 272.33, 272.33, 0, -146791.27, -6491.4)" xlink:href="#Degradado_sin_nombre_82"/></defs><title>logo</title><g class="cls-2"><rect class="cls-3" x="87.51" y="40.6" width="6.85" height="5.1" transform="translate(47.06 133.74) rotate(-89.55)"/></g><g class="cls-4"><rect class="cls-5" x="95.2" y="40.88" width="6.9" height="4.49" transform="translate(54.74 141.43) rotate(-89.55)"/></g><g class="cls-6"><rect class="cls-7" x="103.06" y="40.28" width="6.86" height="5.76" transform="translate(62.49 149.29) rotate(-89.55)"/></g><g class="cls-8"><rect class="cls-9" x="111.87" y="40.33" width="6.97" height="5.65" transform="translate(71.29 158.16) rotate(-89.55)"/></g><g class="cls-10"><rect class="cls-11" x="118.54" y="42.68" width="6.82" height="0.94" transform="matrix(0.01, -1, 1, 0.01, 77.83, 164.76)"/></g><g class="cls-12"><rect class="cls-13" x="125.28" y="40.57" width="6.85" height="5.17" transform="translate(84.54 171.52) rotate(-89.55)"/></g><g class="cls-14"><rect class="cls-15" x="133.92" y="40.33" width="6.99" height="5.65" transform="translate(93.18 180.23) rotate(-89.55)"/></g><g class="cls-16"><rect class="cls-17" x="147.06" y="40.28" width="6.86" height="5.76" transform="translate(106.14 193.29) rotate(-89.55)"/></g><g class="cls-18"><rect class="cls-19" x="155.06" y="40.54" width="7.06" height="5.23" transform="translate(114.19 201.4) rotate(-89.55)"/></g><g class="cls-20"><rect class="cls-21" x="163.44" y="40.28" width="6.86" height="5.75" transform="translate(122.4 209.67) rotate(-89.55)"/></g><g class="cls-22"><rect class="cls-23" x="172.25" y="40.33" width="6.97" height="5.65" transform="translate(131.19 218.55) rotate(-89.55)"/></g><g class="cls-24"><rect class="cls-25" x="180.39" y="41.21" width="6.84" height="3.89" transform="translate(139.21 226.62) rotate(-89.55)"/></g><g class="cls-26"><rect class="cls-27" x="188.95" y="39.65" width="6.87" height="7.01" transform="translate(147.71 235.19) rotate(-89.55)"/></g><g class="cls-28"><rect class="cls-29" x="198.01" y="40.46" width="6.85" height="5.38" transform="translate(156.69 244.24) rotate(-89.55)"/></g><g class="cls-30"><rect class="cls-31" x="59.24" y="14.56" width="22.44" height="15.66" transform="translate(47.51 92.68) rotate(-89.55)"/></g><g class="cls-32"><rect class="cls-33" x="80.92" y="10.75" width="22.5" height="23.29" transform="translate(69.05 114.38) rotate(-89.55)"/></g><g class="cls-34"><rect class="cls-35" x="105.75" y="12.77" width="22.18" height="19.53" transform="translate(93.38 139.2) rotate(-89.55)"/></g><g class="cls-36"><rect class="cls-37" x="127.36" y="15.24" width="21.85" height="14.3" transform="matrix(0.01, -1, 1, 0.01, 114.8, 160.49)"/></g><g class="cls-38"><rect class="cls-39" x="143.48" y="14.56" width="22.44" height="15.66" transform="translate(131.09 176.91) rotate(-89.55)"/></g><g class="cls-40"><rect class="cls-41" x="163.61" y="13.88" width="21.87" height="17.03" transform="translate(150.77 196.75) rotate(-89.55)"/></g><g class="cls-42"><rect class="cls-43" x="182.93" y="15.24" width="21.85" height="14.3" transform="translate(169.93 216.06) rotate(-89.55)"/></g><g class="cls-44"><rect class="cls-45" x="195.89" y="19.94" width="21.77" height="4.9" transform="matrix(0.01, -1, 1, 0.01, 182.75, 228.99)"/></g><g class="cls-46"><rect class="cls-47" x="209.98" y="13.44" width="21.87" height="17.91" transform="matrix(0.01, -1, 1, 0.01, 196.78, 243.13)"/></g><g class="cls-48"><rect class="cls-49" x="7.52" y="5.15" width="41.44" height="47.59" transform="translate(-0.93 56.96) rotate(-89.55)"/></g><g class="cls-50"><rect class="cls-51" x="42.55" y="24.09" width="1.02" height="1.74" transform="translate(17.77 67.82) rotate(-89.55)"/></g><g class="cls-52"><rect class="cls-53" x="35.67" y="12.89" width="4.76" height="9" transform="translate(20.36 55.29) rotate(-89.55)"/></g><g class="cls-54"><rect class="cls-55" x="11.81" y="12.98" width="31.79" height="22.49" transform="translate(3.27 51.74) rotate(-89.55)"/></g><g class="cls-56"><rect class="cls-57" x="10.27" y="12.25" width="15.19" height="10.23" transform="translate(0.36 35.09) rotate(-89.55)"/></g><g class="cls-58"><rect class="cls-59" x="32.91" y="28.29" width="45.71" height="1.32" transform="translate(26.38 84.48) rotate(-89.55)"/></g></svg>